<?xml version="1.0" encoding="UTF-8" standalone="no"?><svg xmlns="http://www.w3.org/2000/svg" xmlns:xlink="http://www.w3.org/1999/xlink" contentScriptType="text/ecmascript" fill="#555555" width="845.4" zoomAndPan="magnify" contentStyleType="text/css" viewBox="77.0 232.6 845.4 535.4" height="535.4" preserveAspectRatio="xMidYMid meet" version="1"><g id="change1_1"><path fill="inherit" d="M 889.394531 697.367188 L 881.511719 697.367188 L 881.511719 259.949219 L 174.53125 259.949219 L 174.53125 252.0625 L 889.394531 252.0625 L 889.394531 697.367188"/><path fill="inherit" d="M 825.039062 748.886719 L 110.175781 748.886719 L 110.175781 303.582031 L 118.0625 303.582031 L 118.0625 741 L 825.039062 741 L 825.039062 748.886719"/><path fill="inherit" d="M 150.855469 245.1875 C 146.089844 246.269531 141.761719 248.21875 138.300781 251.683594 C 145.441406 252.113281 151.070312 257.527344 151.070312 264.886719 C 151.070312 273.542969 144.792969 279.820312 136.136719 279.820312 C 126.609375 279.820312 120.335938 271.378906 120.335938 262.289062 C 120.335938 246.488281 136.785156 235.664062 150.855469 232.636719 L 150.855469 245.1875"/><path fill="inherit" d="M 107.488281 245.1875 C 102.726562 246.269531 98.398438 248.21875 94.933594 251.683594 C 102.078125 252.113281 107.703125 257.527344 107.703125 264.886719 C 107.703125 273.542969 101.429688 279.820312 92.769531 279.820312 C 83.246094 279.820312 76.96875 271.378906 76.96875 262.289062 C 76.96875 246.488281 93.417969 235.664062 107.488281 232.636719 L 107.488281 245.1875"/><path fill="inherit" d="M 848.519531 755.4375 C 853.28125 754.355469 857.613281 752.40625 861.074219 748.941406 C 853.933594 748.511719 848.304688 743.097656 848.304688 735.738281 C 848.304688 727.082031 854.582031 720.804688 863.238281 720.804688 C 872.761719 720.804688 879.039062 729.246094 879.039062 738.335938 C 879.039062 754.136719 862.589844 764.960938 848.519531 767.988281 L 848.519531 755.4375"/><path fill="inherit" d="M 891.886719 755.4375 C 896.648438 754.355469 900.976562 752.40625 904.441406 748.941406 C 897.296875 748.511719 891.671875 743.097656 891.671875 735.738281 C 891.671875 727.082031 897.945312 720.804688 906.605469 720.804688 C 916.128906 720.804688 922.402344 729.246094 922.402344 738.335938 C 922.402344 754.136719 905.953125 764.960938 891.886719 767.988281 L 891.886719 755.4375"/></g></svg>